<svg width="191" height="36" viewBox="0 0 191 36" fill="none" xmlns="http://www.w3.org/2000/svg">
<path d="M148.001 15.0925C147.584 15.9603 147.169 16.828 146.754 17.6958C146.011 19.2514 145.263 20.8071 144.531 22.3687C144.479 22.5142 144.378 22.637 144.245 22.7165C144.113 22.796 143.958 22.8273 143.805 22.8052C143.149 22.7794 142.49 22.7715 141.833 22.8052C141.423 22.829 141.253 22.6187 141.099 22.2972C140.035 20.0577 138.967 17.8188 137.894 15.5806C137.818 15.4035 137.692 15.2529 137.531 15.148C137.484 15.3126 137.446 15.4795 137.416 15.6481C137.176 17.6402 136.938 19.6331 136.704 21.6266C136.602 22.4937 136.485 23.3588 136.405 24.2259C136.365 24.6505 136.207 24.8212 135.758 24.7974C134.823 24.7597 133.886 24.7616 132.951 24.7974C132.489 24.8132 132.337 24.6743 132.4 24.212C132.57 22.9897 132.71 21.7635 132.862 20.5372C133.105 18.5629 133.343 16.5866 133.59 14.6103C133.819 12.765 134.055 10.9216 134.286 9.07629C134.335 8.67945 134.375 8.2826 134.408 7.89766C134.438 7.56431 134.582 7.40359 134.943 7.41351C135.732 7.43335 136.521 7.42938 137.31 7.41351C137.447 7.39944 137.585 7.43397 137.699 7.51113C137.814 7.58829 137.898 7.70324 137.937 7.83615C139.425 11.0585 140.922 14.2763 142.431 17.4894C142.544 17.6969 142.673 17.8958 142.815 18.0847C142.973 17.8927 143.114 17.6868 143.235 17.4696C144.707 14.2776 146.169 11.0804 147.622 7.87782C147.673 7.72344 147.775 7.59176 147.912 7.50579C148.049 7.41983 148.212 7.38506 148.372 7.40755C149.161 7.4393 149.95 7.4274 150.739 7.40755C150.803 7.39623 150.87 7.39958 150.933 7.41736C150.996 7.43514 151.054 7.46689 151.103 7.51029C151.152 7.55369 151.191 7.60763 151.217 7.66814C151.243 7.72865 151.254 7.7942 151.252 7.85996C151.46 9.62593 151.67 11.3906 151.883 13.1539C152.116 15.0799 152.349 17.0073 152.583 18.9359C152.803 20.731 153.026 22.5274 153.254 24.3251C153.297 24.6704 153.183 24.7934 152.83 24.7874C151.812 24.7696 150.794 24.7676 149.776 24.7874C149.413 24.7874 149.279 24.6525 149.244 24.3132C149.092 22.9064 148.926 21.5016 148.764 20.0947C148.595 18.6066 148.423 17.119 148.25 15.6322C148.23 15.4576 148.181 15.285 148.145 15.1103L148.001 15.0925Z" fill="#2F3476"/>
<path d="M81 16.0864C81 13.4017 81.0099 10.715 81 8.03037C81 7.5621 81.1223 7.40534 81.6036 7.4113C83.7734 7.43709 85.9432 7.38352 88.1129 7.43709C91.2335 7.51447 93.5354 8.95304 94.8629 11.8024C95.7091 13.6219 95.9084 15.5724 95.6519 17.5567C95.4231 19.3782 94.8117 21.037 93.5611 22.4161C92.914 23.135 92.1274 23.7129 91.2498 24.1143C90.3721 24.5156 89.422 24.7318 88.4581 24.7495C86.1128 24.8408 83.7616 24.7773 81.4142 24.7951C81.0197 24.7951 81.0059 24.5848 81.0079 24.2912C81.0053 21.5556 81.0026 18.8206 81 16.0864ZM86.7203 10.7071L86.7105 10.7904C86.2666 10.7904 85.8228 10.7904 85.381 10.7904C85.0476 10.7904 84.9056 10.9234 84.9076 11.2587C84.9076 14.4732 84.9076 17.6863 84.9076 20.8981C84.9076 21.2652 85.0634 21.3981 85.4106 21.3942C86.2647 21.3823 87.1208 21.3942 87.9749 21.3783C89.3556 21.3366 90.3597 20.656 90.9948 19.4754C92.1054 17.4138 92.1034 15.2748 91.1921 13.1477C90.768 12.1556 90.0717 11.3222 88.9947 11.0186C88.2589 10.8103 87.4738 10.8023 86.7105 10.7071H86.7203Z" fill="#2F3476"/>
<path d="M46.8555 24.7555V7.46891C47.0045 7.44595 47.1546 7.43072 47.3052 7.42328C49.6545 7.42328 52.0038 7.40344 54.3511 7.43717C57.1304 7.47685 59.1522 9.31623 59.6769 12.0624C60.1838 14.7709 58.4204 17.5984 56.1263 18.2929C55.7318 18.41 55.8107 18.6243 55.9981 18.8882C57.129 20.4861 58.2553 22.0861 59.3771 23.688C59.5999 24.0075 59.8169 24.3309 60.095 24.7397C59.8465 24.7615 59.7005 24.7873 59.5388 24.7873C58.3888 24.7873 57.2388 24.7754 56.0908 24.7873C55.938 24.798 55.7854 24.7638 55.6516 24.6887C55.5177 24.6137 55.4086 24.5011 55.3373 24.3647C54.1998 22.5974 53.0518 20.834 51.8933 19.0747C51.7769 18.8881 51.5999 18.7479 51.3923 18.6778C50.8696 18.5628 50.7512 18.6778 50.7512 19.2215C50.7512 20.9022 50.7374 22.5828 50.7512 24.2615C50.7512 24.6762 50.623 24.8032 50.2166 24.7913C49.2659 24.7655 48.3132 24.7913 47.3604 24.7913C47.2026 24.7873 47.0429 24.7675 46.8555 24.7555ZM52.4357 15.5646V15.5447C52.8618 15.5447 53.2898 15.5646 53.7159 15.5447C54.2632 15.5229 54.7833 15.2993 55.1773 14.9165C55.5712 14.5338 55.8114 14.0186 55.8522 13.4692C55.9784 12.3422 55.2466 11.1378 54.1617 10.9612C53.1518 10.7985 52.1083 10.8322 51.0786 10.8203C50.9701 10.8203 50.767 11.1001 50.763 11.2528C50.7374 12.5525 50.763 13.8542 50.7453 15.1538C50.7453 15.4475 50.8656 15.5745 51.1556 15.5705C51.5816 15.5586 52.0097 15.5646 52.4357 15.5646Z" fill="#2F3476"/>
<path d="M64.7113 16.0882C64.7113 13.4036 64.7212 10.7189 64.7014 8.03227C64.7014 7.56796 64.8178 7.40724 65.3031 7.4112C68.6051 7.42972 71.9064 7.42972 75.2071 7.4112C75.6805 7.4112 75.8443 7.55407 75.8245 8.03028C75.791 8.7704 75.7969 9.51251 75.8245 10.2526C75.8364 10.6653 75.6805 10.7983 75.2781 10.7943C73.2918 10.7804 71.3035 10.7943 69.3172 10.7943C68.6169 10.7943 68.613 10.7943 68.611 11.5205C68.611 12.3142 68.6307 13.1079 68.611 13.9016C68.5952 14.352 68.7609 14.5148 69.2028 14.5108C70.8617 14.4969 72.5205 14.5108 74.1794 14.5108C74.9211 14.5108 74.9211 14.5108 74.9211 15.2767C74.9211 16.0009 74.9034 16.7272 74.9211 17.4594C74.9349 17.8741 74.7791 18.001 74.3767 17.9971C72.6705 17.9812 70.9622 17.9971 69.2481 17.9971C68.6347 17.9971 68.6031 18.0328 68.5992 18.636C68.5992 19.3126 68.5992 19.9873 68.5992 20.6619C68.5992 21.408 68.609 21.4179 69.331 21.4179H75.3432C76.0494 21.4179 76.0494 21.4179 76.0494 22.1342C76.0494 22.8505 76.0237 23.5232 76.0494 24.2097C76.0731 24.682 75.9251 24.8308 75.4438 24.8268C72.4377 24.807 69.4335 24.8268 66.4274 24.8268C66.0329 24.8268 65.6384 24.803 65.2439 24.8268C64.8158 24.8605 64.6758 24.7177 64.6798 24.2752C64.7192 21.525 64.7113 18.8066 64.7113 16.0882Z" fill="#2F3476"/>
<path d="M100.637 16.1239C100.637 13.4214 100.649 10.7209 100.637 8.01833C100.637 7.53418 100.787 7.40917 101.254 7.41116C104.555 7.42968 107.855 7.42968 111.156 7.41116C111.594 7.41116 111.781 7.52227 111.76 7.99253C111.728 8.71678 111.722 9.44301 111.76 10.1752C111.789 10.701 111.574 10.8101 111.099 10.8062C109.144 10.7843 107.189 10.8062 105.235 10.8062C104.556 10.8062 104.546 10.8181 104.544 11.4967C104.544 12.2904 104.544 13.0841 104.544 13.8778C104.544 14.473 104.584 14.5147 105.197 14.5167C106.888 14.5167 108.58 14.5306 110.27 14.5167C110.72 14.5167 110.882 14.6476 110.862 15.112C110.829 15.868 110.831 16.6279 110.862 17.3839C110.882 17.8522 110.738 18.0169 110.255 18.0109C108.58 17.9851 106.901 17.999 105.229 18.0109C104.568 18.0109 104.548 18.0367 104.546 18.7153C104.546 19.4237 104.568 20.134 104.546 20.8404C104.527 21.3047 104.716 21.4357 105.152 21.4357C107.205 21.4218 109.259 21.4357 111.312 21.4357C112 21.4357 112.002 21.4357 112.004 22.1163C112.004 22.8405 111.987 23.5668 112.004 24.2989C112.018 24.6958 111.914 24.8526 111.488 24.8506C108.037 24.8373 104.588 24.8373 101.14 24.8506C100.745 24.8506 100.641 24.7117 100.643 24.3327C100.643 21.5607 100.637 18.8423 100.637 16.1239Z" fill="#2F3476"/>
<path d="M116.922 16.11C116.922 13.4095 116.922 10.707 116.922 8.00445C116.922 7.558 117.04 7.40918 117.5 7.40918C120.818 7.4277 124.135 7.4277 127.453 7.40918C127.907 7.40918 128.061 7.55204 128.045 8.00445C128.015 8.74457 128.017 9.48667 128.045 10.2268C128.063 10.6653 127.899 10.7982 127.473 10.7943C125.5 10.7764 123.528 10.7943 121.555 10.7943C120.827 10.7943 120.827 10.7943 120.826 11.5463C120.826 12.34 120.843 13.1337 120.826 13.9274C120.812 14.356 120.975 14.5226 121.398 14.5107C123.106 14.4988 124.814 14.5107 126.526 14.4969C126.982 14.4969 127.177 14.606 127.153 15.102C127.116 15.8957 127.128 16.6894 127.153 17.4732C127.165 17.87 127.015 17.9871 126.637 17.9851C124.928 17.9712 123.22 17.9851 121.508 17.9851C120.867 17.9851 120.837 18.0189 120.835 18.6518C120.835 19.3265 120.835 20.0031 120.835 20.6777C120.835 21.3901 120.853 21.4079 121.545 21.4079H127.556C128.286 21.4079 128.286 21.4079 128.286 22.15C128.286 22.8921 128.276 23.6323 128.286 24.3744C128.286 24.6918 128.179 24.8109 127.858 24.8109C124.36 24.803 120.862 24.803 117.364 24.8109C116.948 24.8109 116.93 24.5966 116.93 24.2831C116.928 21.5541 116.926 18.8298 116.922 16.11Z" fill="#2F3476"/>
<g clip-path="url(#clip0_6901_71610)">
<path d="M28.5758 1.10312e-06H3.17509C2.333 1.10312e-06 1.52541 0.334662 0.929964 0.930365C0.334519 1.52607 0 2.33402 0 3.17647V12.9176C0 13.1985 0.111509 13.4678 0.309991 13.6663C0.508472 13.8649 0.777668 13.9765 1.05836 13.9765H2.25828C3.31665 13.9765 4.19641 14.7997 4.23213 15.8122C4.24253 16.0682 4.20099 16.3237 4.11005 16.5632C4.0191 16.8027 3.88062 17.0213 3.70295 17.2059C3.5257 17.3909 3.31267 17.538 3.07682 17.6381C2.84097 17.7382 2.58724 17.7893 2.33105 17.7882H1.06101C0.780316 17.7882 0.511117 17.8998 0.312635 18.0984C0.114153 18.2969 0.00264849 18.5662 0.00264849 18.8471V28.5882C0.00264849 29.4307 0.337163 30.2386 0.932608 30.8343C1.52805 31.43 2.33565 31.7647 3.17774 31.7647H19.6353L21.1434 33.8043C21.162 33.8294 21.1831 33.8546 21.2043 33.8784L21.2241 33.9009C22.0179 34.7876 23.0908 36 25.1269 36C25.8061 35.9964 26.477 35.8507 27.0965 35.5721C27.716 35.2936 28.2704 34.8884 28.724 34.3826C29.4313 33.607 29.8045 32.5836 29.7625 31.5344C30.3503 31.2981 30.854 30.8912 31.2088 30.3662C31.5636 29.8412 31.7533 29.222 31.7535 28.5882V3.17647C31.7535 2.75911 31.6713 2.34584 31.5116 1.96028C31.3519 1.57472 31.1178 1.22443 30.8226 0.929428C30.5275 0.634431 30.1772 0.400507 29.7917 0.24103C29.4061 0.081553 28.993 -0.000346699 28.5758 1.10312e-06V1.10312e-06Z" fill="#303778"/>
<path d="M22.8153 32.5057C23.5747 33.3594 24.0972 33.8821 25.1252 33.8821C25.5048 33.8806 25.8798 33.7994 26.2262 33.6439C26.5725 33.4885 26.8825 33.2621 27.1361 32.9795C27.3213 32.7831 27.462 32.5489 27.5486 32.2931C27.6351 32.0373 27.6654 31.7658 27.6375 31.4971C27.4046 29.631 25.7443 20.5569 24.6952 14.8882C23.8283 16.4703 22.5525 17.7903 21.0011 18.7102C19.4498 19.6301 17.6798 20.1162 15.8764 20.1174C15.853 20.1188 15.8296 20.1188 15.8063 20.1174C15.4716 20.0949 15.0271 20.1492 14.8061 20.5304C14.5971 20.8877 14.6513 21.4079 14.9384 21.8619L22.8153 32.5057Z" fill="#868AC3"/>
<path d="M2.11719 19.9059V28.5883C2.11719 28.8691 2.2287 29.1384 2.42718 29.337C2.62566 29.5355 2.89486 29.6471 3.17555 29.6471H18.068L13.2221 23.0943L13.1903 23.048C12.4362 21.9058 12.3542 20.5333 12.976 19.4625C13.5515 18.4725 14.6442 17.9259 15.9077 18C16.954 17.999 17.9897 17.7895 18.9544 17.3839C19.919 16.9783 20.7933 16.3846 21.5262 15.6375C22.2673 14.8906 22.8515 14.0029 23.2443 13.0266C23.6372 12.0503 23.8308 11.0052 23.8136 9.95296C23.7567 5.63296 20.1371 2.11768 15.7436 2.11768H3.17555C2.89486 2.11768 2.62566 2.22923 2.42718 2.4278C2.2287 2.62637 2.11719 2.89568 2.11719 3.1765V11.8588H2.25874C4.43765 11.8588 6.27259 13.598 6.348 15.7368C6.36948 16.2774 6.28087 16.8168 6.08756 17.3221C5.89425 17.8275 5.60027 18.2882 5.22348 18.6763C4.84946 19.0668 4.4 19.3772 3.9024 19.5886C3.4048 19.7999 2.86945 19.9079 2.32886 19.9059H2.11719Z" fill="#DFE1F2"/>
</g>
<defs>
<clipPath id="clip0_6901_71610">
<rect width="31.7509" height="36" fill="white"/>
</clipPath>
</defs>
</svg>
